<?xml version="1.0" standalone="no"?>
<!DOCTYPE svg PUBLIC "-//W3C//DTD SVG 20010904//EN"
 "http://www.w3.org/TR/2001/REC-SVG-20010904/DTD/svg10.dtd">
<svg version="1.0" xmlns="http://www.w3.org/2000/svg"
 width="64.000000pt" height="64.000000pt" viewBox="0 0 64.000000 64.000000"
 preserveAspectRatio="xMidYMid meet">

<g transform="translate(0.000000,64.000000) scale(0.100000,-0.100000)"
fill="#000000" stroke="none">
<path d="M235 561 c-53 -24 -111 -90 -126 -143 -26 -96 15 -211 105 -296 84
-80 126 -81 206 -6 26 24 63 72 81 107 29 54 34 71 34 132 -1 76 -14 111 -62
159 -62 63 -160 83 -238 47z m161 -40 c103 -47 131 -165 67 -282 -30 -56 -113
-139 -139 -139 -28 0 -83 40 -119 87 -95 125 -79 274 37 332 53 26 100 26 154
2z"/>
<path d="M265 435 c-50 -49 -15 -135 55 -135 41 0 80 39 80 80 0 19 -9 40 -25
55 -15 16 -36 25 -55 25 -19 0 -40 -9 -55 -25z m85 -30 c26 -32 -13 -81 -47
-59 -23 14 -28 41 -13 59 16 19 44 19 60 0z"/>
</g>
</svg>
